<svg xmlns="http://www.w3.org/2000/svg" width="392" height="513" viewBox="0 0 392 513">
  <path fill="#F3F6F9" d="M298.062755,104.363758 C265.175265,102.265224 233.852877,82.6851566 203.943148,61.2688717 C174.033419,39.8525869 144.408254,16.0941887 112.308396,4.78646527 C91.6622478,-2.5209285 68.0485013,-3.55145839 51.4167405,16.8624019 C35.4150861,36.5361544 30.2319526,70.4312193 27.4472887,101.853013 C25.3537093,125.517726 24.1239855,150.428444 29.8559214,172.584837 C33.8398201,187.967838 40.9031099,200.896303 45.7915162,215.623512 C62.7993082,266.897059 50.7764711,330.115383 32.3509396,380.171031 C23.7123837,403.648375 13.6764144,426.076453 7.00440034,451.043382 C0.332386312,476.01031 -2.75208628,504.677778 3.08656118,530.178709 C8.86931211,555.473533 22.655431,574.435283 37.5899696,587.78533 C67.9214637,614.953845 103.649514,622.664082 138.51371,627.067256 C215.666177,636.79171 293.225164,632.585275 370.580891,628.360102 C399.210081,626.804939 427.961228,625.22167 456.12292,617.061747 C471.763787,612.527416 487.907724,605.332443 499.264884,587.96333 C513.676028,565.919359 517.248325,528.59544 507.588387,500.949134 C491.388554,454.584657 446.610345,443.070828 435.273511,393.314971 C429.043588,365.921613 435.441201,335.417928 444.501521,310.02005 C463.933191,255.523756 496.500546,207.716538 498.213013,145.435058 C499.391922,102.6587 483.73581,59.8167614 459.527527,39.5715333 C434.15558,18.351986 398.966169,21.0219953 380.256073,56.1349592 C360.976849,92.3065584 327.093384,106.22808 298.062755,104.363758 Z" transform="matrix(0 -1 -1 0 633 513)"/>
</svg>
