<svg xmlns="http://www.w3.org/2000/svg" width="26" height="25" viewBox="0 0 26 25">
  <path fill="#3B3F3F" d="M25.1521298,12.5760649 C25.1521298,5.62880325 19.5233266,0 12.5760649,0 C5.62880325,0 0,5.62880325 0,12.5760649 C0,18.8529412 4.59888438,24.0557809 10.6110548,25 L10.6110548,16.2114604 L7.4163286,16.2114604 L7.4163286,12.5760649 L10.6110548,12.5760649 L10.6110548,9.80527383 C10.6110548,6.65365112 12.4873225,4.9127789 15.3610548,4.9127789 C16.7373225,4.9127789 18.1764706,5.15821501 18.1764706,5.15821501 L18.1764706,8.2515213 L16.5902637,8.2515213 C15.0283976,8.2515213 14.5410751,9.22109533 14.5410751,10.2155172 L14.5410751,12.5760649 L18.0289047,12.5760649 L17.4710953,16.2114604 L14.5410751,16.2114604 L14.5410751,25 C20.5532454,24.0557809 25.1521298,18.8529412 25.1521298,12.5760649 Z"/>
</svg>
