<svg xmlns="http://www.w3.org/2000/svg" width="25" height="25" viewBox="0 0 25 25">
  <path fill="#3B3F3F" d="M5.59598214,24.9994419 L0.412946429,24.9994419 L0.412946429,8.30859371 L5.59598214,8.30859371 L5.59598214,24.9994419 Z M3.00167411,6.03180799 C1.34430804,6.03180799 0,4.65904013 0,3.00167406 C0,1.34389525 1.34389529,-5.32907052e-15 3.00167411,-5.32907052e-15 C4.65945292,-5.32907052e-15 6.00334821,1.34389525 6.00334821,3.00167406 C6.00334821,4.65904013 4.65848214,6.03180799 3.00167411,6.03180799 Z M24.9944196,24.9994419 L19.8225446,24.9994419 L19.8225446,16.8744419 C19.8225446,14.938058 19.7834821,12.4547991 17.1277902,12.4547991 C14.4330357,12.4547991 14.0200893,14.5585937 14.0200893,16.734933 L14.0200893,24.9994419 L8.84263393,24.9994419 L8.84263393,8.30859371 L13.8136161,8.30859371 L13.8136161,10.5853794 L13.8861607,10.5853794 C14.578125,9.27399549 16.2684152,7.89006692 18.7901786,7.89006692 C24.0357143,7.89006692 25,11.344308 25,15.8309151 L25,24.9994419 L24.9944196,24.9994419 Z"/>
</svg>
